<svg version="1.0" xmlns="http://www.w3.org/2000/svg" width="1024.000000pt" height="1024.000000pt" viewBox="0 0 1024.000000 1024.000000" preserveAspectRatio="xMidYMid meet"><g transform="translate(0.000000,1024.000000) scale(0.100000,-0.100000)" fill="#0075b8" stroke="none"><path d="M2720 7954 c-408 -49 -702 -125 -1009 -264 -547 -247 -998 -653
   -1291 -1164 -180 -314 -305 -697 -352 -1076 -17 -138 -17 -545 0 -680 53 -420
   188 -812 397 -1150 147 -236 413 -536 625 -704 464 -366 1026 -584 1649 -637
   176 -15 548 -7 711 16 619 85 1148 320 1598 708 50 44 92 82 92 85 0 2 -39 45
   -87 96 -342 359 -582 803 -693 1281 -18 77 -34 147 -37 155 -3 9 -21 -20 -43
   -67 -294 -632 -1036 -930 -1737 -698 -405 135 -713 445 -842 847 -44 140 -62
   253 -62 408 -2 479 224 892 624 1143 437 275 1053 279 1497 10 100 -61 179
   -125 271 -220 120 -125 202 -247 264 -396 l29 -69 23 104 c113 505 338 934
   699 1332 l108 119 -39 34 c-272 236 -431 346 -688 475 -289 144 -576 234 -932
   290 -106 16 -187 21 -435 23 -168 2 -321 1 -340 -1z"/></g><g xmlns="http://www.w3.org/2000/svg" transform="translate(0.000000,1024.000000) scale(0.100000,-0.100000)" fill="#23a0da" stroke="none"><path d="M7040 7925 c-705 -78 -1329 -374 -1815 -860 -438 -438 -706 -966 -800 -1575 -26 -164 -31 -514 -11 -690 76 -650 357 -1219 832 -1680 236 -228 454 -381 759 -530 474 -233 934 -331 1494 -317 473 11 851 101 1246 297 279 137 487 285 693 491 604 601 859 1445 725 2402 l-16 117 -1392 0 -1391 0 -37 -38 -37 -38 0 -524 0 -524 42 -43 42 -43 548 0 548 0 0 -23 c0 -35 -35 -131 -71 -193 -213 -374 -873 -522 -1456 -329 -477 159 -814 537 -920 1035 -25 117 -24 371 1 489 42 198 130 395 240 541 79 106 238 259 334 323 163 109 338 183 532 224 117 24 370 24 493 0 259 -52 539 -185 737 -351 48 -41 60 -46 100 -45 101 3 21 -94 795 968 l119 164 -50 44 c-425 378 -1028 633 -1674 707 -160 19 -446 19 -610 1z"/></g></svg>